<?xml version="1.0" encoding="UTF-8"?>
<svg id="arrow-circle-down" xmlns="http://www.w3.org/2000/svg" version="1.1" viewBox="0 0 30 30">
  <!-- Generator: Adobe Illustrator 29.2.1, SVG Export Plug-In . SVG Version: 2.1.0 Build 116)  -->
  <path d="M6.8.9h16.5c3.2,0,5.9,2.6,5.9,5.9v16.5c0,3.2-2.6,5.9-5.9,5.9H6.8c-3.2,0-5.9-2.6-5.9-5.9V6.8c0-3.2,2.6-5.9,5.9-5.9ZM23.2,26.8c2,0,3.5-1.6,3.5-3.5V6.8c0-2-1.6-3.5-3.5-3.5H6.8c-2,0-3.5,1.6-3.5,3.5v16.5c0,2,1.6,3.5,3.5,3.5h16.5ZM21.7,16.6l-6-6.1c-.4-.4-1.1-.4-1.5,0,0,0,0,0,0,0l-6,6.1c-.4.4-.4,1.1,0,1.5.2.2.5.3.8.3h12c.6,0,1.1-.5,1.1-1.1,0-.3-.1-.6-.3-.8h0Z"/>
</svg>