<?xml version="1.0" encoding="UTF-8"?>
<svg id="arrow-circle-down" xmlns="http://www.w3.org/2000/svg" version="1.1" viewBox="0 0 30 30">
  <!-- Generator: Adobe Illustrator 29.2.1, SVG Export Plug-In . SVG Version: 2.1.0 Build 116)  -->
  <path d="M22.5,28.8H7.5c-3.5,0-6.3-2.8-6.3-6.3V7.5c0-3.5,2.8-6.3,6.3-6.3h15c3.5,0,6.3,2.8,6.3,6.3v15c0,3.5-2.8,6.3-6.3,6.3ZM7.5,4.6c-1.6,0-2.9,1.3-2.9,2.9v15c0,1.6,1.3,2.9,2.9,2.9h15c1.6,0,2.9-1.3,2.9-2.9V7.5c0-1.6-1.3-2.9-2.9-2.9H7.5ZM8.4,13.4l5.9,5.9c.4.4,1.1.4,1.5,0,0,0,0,0,0,0l5.9-5.9c.4-.4.4-1.1,0-1.5-.2-.2-.5-.3-.7-.3h-11.7c-.6,0-1.1.5-1,1.1,0,.3.1.5.3.7Z"/>
</svg>